<svg xmlns="http://www.w3.org/2000/svg" width="35.333" height="37.841" viewBox="0 0 35.333 37.841">
  <g id="Group_519" data-name="Group 519" transform="translate(-1044 -4173.159)">
    <g id="Group_421" data-name="Group 421" transform="translate(1945 4422.159)">
      <path id="Path_611" data-name="Path 611" d="M-866.626-211.159h-33.489A1.535,1.535,0,0,1-901-211.9v-36.439l.738-.664H-866.4l.738.811v36.218A1.6,1.6,0,0,1-866.626-211.159Zm-12.343-2.3v-28.651H-887.7v28.651Zm-19.793-28.665v28.651h8.735v-28.651Zm30.794.01h-8.662v28.651h8.662Zm-22.056-4.574h-8.735v2.245h8.735Zm11.065,0h-8.735v2.245h8.735Zm10.977,2.25v-2.256h-8.653v2.256Z" fill="#2699fb" fill-rule="evenodd"/>
      <path id="Path_612" data-name="Path 612" d="M-696.922,125.984a2.992,2.992,0,0,1-3.154,3.035,3.053,3.053,0,0,1-2.891-3.063,3.052,3.052,0,0,1,3.11-3A2.972,2.972,0,0,1-696.922,125.984Zm-2.283-.013c.07-.382-.4-.722-.687-.731a.81.81,0,0,0-.791.773.808.808,0,0,0,.781.705A.679.679,0,0,0-699.205,125.971Z" transform="translate(-183.426 -344.515)" fill="#2699fb" fill-rule="evenodd"/>
      <path id="Path_613" data-name="Path 613" d="M-852.093,125.984a2.975,2.975,0,0,1,3.01-3.032A3.056,3.056,0,0,1-846.046,126a3.043,3.043,0,0,1-3.263,3.024A3.013,3.013,0,0,1-852.093,125.984Zm2.283,0a.677.677,0,0,0,.719.734.809.809,0,0,0,.759-.738.823.823,0,0,0-.758-.74A.728.728,0,0,0-849.809,125.985Z" transform="translate(-45.291 -344.515)" fill="#2699fb" fill-rule="evenodd"/>
      <path id="Path_614" data-name="Path 614" d="M-550.34,129.036a3,3,0,0,1-3-3.234,3.064,3.064,0,0,1,3.064-2.814,3.03,3.03,0,0,1,3,3.063A2.971,2.971,0,0,1-550.34,129.036Zm0-2.283a.808.808,0,0,0,.782-.71.81.81,0,0,0-.765-.768.77.77,0,0,0-.713.761A.676.676,0,0,0-550.339,126.753Z" transform="translate(-322.01 -344.549)" fill="#2699fb" fill-rule="evenodd"/>
    </g>
  </g>
</svg>
