<svg xmlns="http://www.w3.org/2000/svg" width="51.861" height="45.479" viewBox="0 0 51.861 45.479">
  <g id="Group_518" data-name="Group 518" transform="translate(-256 -4166)">
    <g id="Group_422" data-name="Group 422" transform="translate(-279 3893)">
      <path id="Path_615" data-name="Path 615" d="M547.661,273h1.823c.018.027.031.072.053.077a4.8,4.8,0,0,1,4.029,4c.056.274-.025.6.359.859a8.609,8.609,0,0,1,3.416,4.3,8.407,8.407,0,0,1,.462,4.215,1.287,1.287,0,0,0,.221,1.276,2.889,2.889,0,0,1,.371,3.057,2.211,2.211,0,0,1-2.105,1.4,2.454,2.454,0,0,1-.046.408,8.062,8.062,0,0,1-3.093,4.508,1.259,1.259,0,0,0-.123,1.27c.74.673,1.474,1.351,2.218,2.019a2.129,2.129,0,0,0,.528.365c1.054.475,2.1.985,3.178,1.387a5.073,5.073,0,0,1,3.189,4.68c-.023.652-.07,1.3-.1,1.956-.07,1.574-.143,3.147-.2,4.721-.046,1.242-.1,2.486-.088,3.728a1.349,1.349,0,0,1-.621,1.256h-.405a.924.924,0,0,1-.617-1.034c.1-1.536.156-3.074.211-4.612.048-1.324.068-2.65.107-3.975.005-.181.055-.361.064-.543a5.069,5.069,0,0,0-.418-3.073c-.589.711-1.151,1.431-1.758,2.113a4.228,4.228,0,0,0-1.136,2.886c-.006,2.343-.019,4.686.011,7.029a1.127,1.127,0,0,1-.618,1.21h-.405a.969.969,0,0,1-.614-1.05c.02-2.277.055-4.555-.005-6.831a6.6,6.6,0,0,1,1.939-4.843c.515-.555.967-1.17,1.488-1.807-1.168-.511-2.271-.989-3.369-1.48-.3-.136-.423-.008-.573.245-.631,1.066-1.289,2.116-1.937,3.172a1.607,1.607,0,0,1-2.617.276c-.315-.308-.67-.573-1.1-.937v.64c0,3.8-.008,7.59.009,11.385a1.224,1.224,0,0,1-.614,1.229h-.405a.971.971,0,0,1-.614-1.051c.015-3.883.008-7.765.008-11.648v-.6c-.4.353-.718.623-1.027.9-1.1,1-2.164.81-2.834-.376-.593-1.05-1.256-2.062-1.906-3.078-.071-.111-.309-.235-.4-.2-1.05.446-2.086.923-3.126,1.39-.224.1-.318.212-.117.445.522.6,1,1.251,1.545,1.831a6.282,6.282,0,0,1,1.684,4.492c0,2.211-.019,4.423.014,6.634a1.345,1.345,0,0,1-.619,1.256h-.405a.956.956,0,0,1-.62-1.035c.034-2.311.025-4.622.006-6.933a7.369,7.369,0,0,0-.188-1.321,6.173,6.173,0,0,0-1.64-2.623c-.352-.433-.718-.854-1.078-1.28l-.154.013a6.164,6.164,0,0,0-.264,1.318c.034,1.961.123,3.922.187,5.883.04,1.225.067,2.45.106,3.675a1.855,1.855,0,0,0,.075.338,1.7,1.7,0,0,1-.583,1.967h-.405c-.332-.166-.607-.357-.612-.794-.005-.465-.075-.929-.092-1.394-.042-1.188-.069-2.376-.105-3.564q-.047-1.53-.106-3.06c0-.069-.064-.135-.1-.2v-3.647a1.035,1.035,0,0,0,.1-.2,5.027,5.027,0,0,1,1.455-2.494,11.443,11.443,0,0,1,3.369-1.754,6.6,6.6,0,0,0,2.744-1.733,5.645,5.645,0,0,1,1.192-1.16.657.657,0,0,0,.364-.66c-.014-.3,0-.546-.3-.767a7.632,7.632,0,0,1-3.068-4.6c-.028-.128-.259-.228-.412-.307a5.32,5.32,0,0,1-1.21-.612,3,3,0,0,1-.032-3.955.685.685,0,0,0,.157-.486,10.531,10.531,0,0,1,.271-4.5,9.221,9.221,0,0,1,3.568-4.675.727.727,0,0,0,.3-.441,4.437,4.437,0,0,1,2.072-3.547A14.943,14.943,0,0,1,547.661,273Zm-5.481,14.455a5.453,5.453,0,0,0,.408-.447.863.863,0,0,1,1.152-.345.821.821,0,0,1,.187,1.251,8.677,8.677,0,0,1-1.049,1.054c-.562.5-1.117.414-1.723-.126-.138-.123-.418-.248-.544-.187a.856.856,0,0,0-.43.533c-.169.97-.011,1.16.975,1.345.048.009.09.043.138.054.762.192.95.761,1.124,1.461a6.305,6.305,0,0,0,12.33-.273,1.518,1.518,0,0,1,1.448-1.255.993.993,0,0,0,.556-.16,1.537,1.537,0,0,0,.124-1.416c-.281-.477-.684-.393-1.085-.237a.918.918,0,0,1-1.093-.211,2.1,2.1,0,0,0-1.762-.624,13.32,13.32,0,0,1-1.953-.086,12.643,12.643,0,0,1-5.809-1.819,6.96,6.96,0,0,1-2.206-1.912.831.831,0,0,1,.187-1.224.892.892,0,0,1,1.123.213,5.152,5.152,0,0,0,.338.429,9.951,9.951,0,0,0,3.342,2,15.319,15.319,0,0,0,5.8.794,2.261,2.261,0,0,1,1.541.585.5.5,0,0,0,.855-.282,11.059,11.059,0,0,0-.014-2.634,7.283,7.283,0,0,0-4.008-5.153,7.775,7.775,0,0,0-4.892-.725,7.608,7.608,0,0,0-4.8,2.787,7.068,7.068,0,0,0-1.559,5.217c.041.508.117.973.739,1.1A2.574,2.574,0,0,1,542.18,287.455Zm6.4,14.776c.747-.749,1.413-1.519,2.184-2.161.683-.568.568-1.228.508-1.971a8.537,8.537,0,0,1-5.432-.006,7.4,7.4,0,0,0,.007.834,1.384,1.384,0,0,0,.189.73C546.837,300.516,547.685,301.337,548.576,302.23ZM551.685,305l2.183-3.544-1.052-1.059-2.99,3Zm-6.366-28.175a10.417,10.417,0,0,1,6.5.025,3.464,3.464,0,0,0-3.615-2.234A3.418,3.418,0,0,0,545.319,276.829Zm1.966,26.565-2.971-2.971-1.076,1.034c.666,1.1,1.329,2.2,2.016,3.289a.415.415,0,0,0,.4.069C546.206,304.364,546.732,303.883,547.286,303.394Z" fill="#2699fb" fill-rule="evenodd"/>
      <path id="Path_616" data-name="Path 616" d="M768.115,273h2.937c.364.068.728.133,1.091.206a7.558,7.558,0,0,1,4.718,2.748c1.665,2.179,1.768,4.729,1.5,7.332-.036.354-.2.834-.031,1.046a3.6,3.6,0,0,1,.525,2.282,2.212,2.212,0,0,1-1.963,2.2.506.506,0,0,0-.359.3,7.368,7.368,0,0,1-1.741,3.4.7.7,0,0,0-.19.442c.024.6-.2,1.205.545,1.677A12.286,12.286,0,0,1,777,296.419a1.146,1.146,0,0,0,.348.276c1.15.449,2.3.9,3.462,1.32a4.934,4.934,0,0,1,2.478,1.588,19.607,19.607,0,0,1,1.238,2.265v3.748c-.034.068-.1.134-.1.2-.04.9-.07,1.808-.107,2.712-.066,1.623-.142,3.245-.2,4.869-.045,1.275-.1,2.551-.088,3.825a1.349,1.349,0,0,1-.621,1.255H783a.906.906,0,0,1-.616-1.036c.075-.749.08-1.5.11-2.257.07-1.725.144-3.449.2-5.174.046-1.393.07-2.787.1-4.181,0-.067.006-.135.006-.2,0-1.131,0-2.262,0-3.432-.6.608-1.172,1.252-1.815,1.812a4.32,4.32,0,0,0-1.443,3.516c.015,3.307-.009,6.614.019,9.92a.96.96,0,0,1-.62,1.035h-.405a1.353,1.353,0,0,1-.613-1.259c.016-3.425-.005-6.85.017-10.275a4.433,4.433,0,0,1,.712-2.64,19.373,19.373,0,0,1,1.56-1.82c.583-.624,1.2-1.211,1.872-1.876a7.162,7.162,0,0,0-1.019-.659c-1.26-.531-2.541-1.016-3.806-1.536-.285-.117-.405-.012-.552.21-.867,1.31-1.753,2.608-2.619,3.918a1.943,1.943,0,0,1-1.574,1.044c-.444.016-.89,0-1.372,0,0,.194-.014.446,0,.7.061.949.146,1.9.2,2.846q.119,2.257.2,4.516c.075,1.927.128,3.855.211,5.782a.947.947,0,0,1-.612,1.05h-.405c-.286-.213-.584-.417-.605-.825-.033-.635-.071-1.269-.1-1.9-.07-1.506-.141-3.011-.2-4.517-.073-1.809-.157-3.619-.2-5.428-.032-1.436-.007-1.436-1.447-1.286-.014,0-.026.021-.074.063-.069,1.1-.151,2.227-.21,3.358-.078,1.505-.14,3.011-.2,4.517-.071,1.657-.155,3.315-.192,4.973a.99.99,0,0,1-.617,1.05h-.405a1.075,1.075,0,0,1-.613-1.212c.094-1.1.152-2.2.208-3.3q.114-2.233.2-4.467c.046-1.191.066-2.384.107-3.575.011-.315.078-.628.088-.943.016-.493,0-.986,0-1.541a2.217,2.217,0,0,1-2.287-.213,6.42,6.42,0,0,1-1.14-1.436c-.788-1.154-1.549-2.328-2.322-3.5-.493.19-.942.354-1.383.534-1.038.424-2.082.834-3.1,1.293a.912.912,0,0,1-1.188-.243.789.789,0,0,1,.321-1.141q1.888-.858,3.823-1.612a4.428,4.428,0,0,0,1.96-1.207,4.5,4.5,0,0,1,1.224-1.2c.839-.435.654-1.125.654-1.8a.575.575,0,0,0-.129-.356,7.978,7.978,0,0,1-1.8-3.437.546.546,0,0,0-.379-.32,2.02,2.02,0,0,1-1.475-.839c-.793-1.145-.721-3.375.694-4.1-.087-.638-.151-1.263-.26-1.88a9.753,9.753,0,0,1-.066-3.784A3.567,3.567,0,0,1,762.3,275.3a4.971,4.971,0,0,0,.934-.4c.824-.419,1.614-.919,2.469-1.256A19.905,19.905,0,0,1,768.115,273Zm8.613,10.584a34.174,34.174,0,0,0-.023-3.7,5.413,5.413,0,0,0-3.821-4.759,9.992,9.992,0,0,0-4.728-.412,8.106,8.106,0,0,0-4.12,1.688,1.424,1.424,0,0,1-.652.332,2.354,2.354,0,0,0-2.249,2.644,19.161,19.161,0,0,0,.217,2.893c.116.707.017,1.625,1.153,1.815.16-.174.379-.408.594-.644a.734.734,0,0,1,1-.077.639.639,0,0,1,.293.9,5.137,5.137,0,0,1-.566.855c-.831,1.022-1.491,1.075-2.538.273a.64.64,0,0,0-.553.019c-.426.223-.325.654-.319,1.031.007.513.213.717.728.744a1.477,1.477,0,0,1,1.5,1.26,6.405,6.405,0,0,0,2.478,3.9,5.994,5.994,0,0,0,6.3.662,6.125,6.125,0,0,0,3.582-4.5,1.456,1.456,0,0,1,1.591-1.316c.448-.006.573-.283.629-.629a2.941,2.941,0,0,0,0-.657.652.652,0,0,0-.867-.626,1.342,1.342,0,0,1-1.76-.939c-.137-.366-.289-.725-.406-1.016-1.118.108-2.158.29-3.2.288a17.473,17.473,0,0,1-3.276-.3,7.162,7.162,0,0,1-4.429-2.519.825.825,0,1,1,1.222-1.1c.33.309.645.637,1,.915a7.658,7.658,0,0,0,4.883,1.382,27.189,27.189,0,0,0,3.949-.46.921.921,0,0,1,1.162.658c.128.34.3.663.413,1.008C776.046,283.578,776.258,283.746,776.728,283.584Zm-3.8,10.543a8.2,8.2,0,0,1-8.261-.054,6.4,6.4,0,0,0,.009.87,1.068,1.068,0,0,0,.23.613c1.282,1.139,2.588,2.251,3.915,3.4a4.576,4.576,0,0,0,.436-.306c.95-.841,1.846-1.752,2.857-2.51A1.734,1.734,0,0,0,772.93,294.127Zm-5.266,6.036-4.512-3.939c-.319.327-.569.6-.838.853-.2.185-.2.314-.034.549.906,1.318,1.805,2.643,2.662,3.994a.628.628,0,0,0,1.053.179C766.566,301.283,767.1,300.723,767.664,300.163Zm2.362,0c.59.564,1.125,1.072,1.657,1.582a.619.619,0,0,0,1.049-.1c.959-1.432,1.9-2.872,2.774-4.187l-1.027-1.2Zm-.536,2.7c.06-.865-.069-1.235-.624-1.548a1.235,1.235,0,0,0-.6,1.548Z" transform="translate(-197.663)" fill="#2699fb" fill-rule="evenodd"/>
      <path id="Path_617" data-name="Path 617" d="M816.218,603.509c-.454,0-.908,0-1.363,0-.573,0-.827-.2-.859-.665a.789.789,0,0,1,.792-.94c.958-.034,1.918-.035,2.876,0a.787.787,0,0,1,.784.947c-.036.464-.287.655-.867.657C817.127,603.51,816.672,603.509,816.218,603.509Z" transform="translate(-250.734 -295.566)" fill="#2699fb" fill-rule="evenodd"/>
      <path id="Path_618" data-name="Path 618" d="M613.716,637.217c-.387,0-.774-.017-1.159,0-.419.024-.572-.245-.626-.57-.062-.375-.016-.872.392-.915a15.7,15.7,0,0,1,2.721-.023.711.711,0,0,1,.606.878.743.743,0,0,1-.826.631C614.458,637.192,614.086,637.217,613.716,637.217Z" transform="translate(-69.118 -325.932)" fill="#2699fb" fill-rule="evenodd"/>
    </g>
  </g>
</svg>
