<svg xmlns="http://www.w3.org/2000/svg" width="1399.022" height="1399.048" viewBox="0 0 1399.022 1399.048">
  <path id="Path_597" data-name="Path 597" d="M80.333,890.953c20.74,384.792,350.681,681.124,735.552,660.311,384.939-20.678,681.123-350.681,660.378-735.552C1455.6,430.846,1125.582,134.582,740.644,155.322,355.846,176.067,59.593,506.008,80.333,890.953ZM338.866,877c-13.09-242.337,173.46-450.061,415.73-463.14,242.337-13.084,450.061,173.454,463.213,415.8a437.582,437.582,0,0,1-69.677,261.132l45.392,169.047-178.6-35.994A435.787,435.787,0,0,1,802.006,1292.8C559.669,1305.814,351.945,1119.337,338.866,877Z" transform="translate(-78.783 -153.773)" fill="none" stroke="#fff" stroke-miterlimit="10" stroke-width="1"/>
</svg>
